<?xml version="1.0" standalone="no"?>
<!DOCTYPE svg PUBLIC "-//W3C//DTD SVG 20010904//EN"
 "http://www.w3.org/TR/2001/REC-SVG-20010904/DTD/svg10.dtd">
<svg version="1.0" xmlns="http://www.w3.org/2000/svg"
 width="512.000000pt" height="512.000000pt" viewBox="0 0 512.000000 512.000000"
 preserveAspectRatio="xMidYMid meet">

<g transform="translate(0.000000,512.000000) scale(0.100000,-0.100000)"
fill="white" stroke="none">
<path d="M2415 5069 c-154 -27 -299 -56 -323 -65 -60 -23 -101 -60 -128 -119
-28 -59 -30 -107 -9 -224 8 -47 13 -86 11 -88 -2 -2 -174 -33 -381 -69 -229
-39 -397 -73 -426 -85 -66 -29 -140 -110 -167 -182 -27 -71 -27 -138 -3 -272
17 -87 23 -103 50 -127 17 -15 39 -28 49 -28 18 0 45 5 1517 256 534 91 1084
185 1223 209 260 44 293 55 314 101 16 35 -15 229 -50 307 -44 102 -138 170
-262 192 -23 4 -172 -17 -424 -60 -213 -36 -390 -65 -391 -63 -2 2 -11 45 -20
96 -8 51 -20 105 -26 120 -17 45 -57 90 -105 118 -71 42 -129 40 -449 -17z
m358 -163 c12 -13 44 -183 36 -190 -9 -8 -620 -108 -632 -103 -27 10 -45 206
-19 207 4 1 131 23 282 49 315 56 314 56 333 37z m1094 -251 c35 -23 53 -57
59 -111 l6 -49 -1371 -234 c-755 -128 -1374 -231 -1377 -228 -3 3 -8 32 -11
64 -5 69 17 114 69 138 18 8 485 92 1038 186 553 94 1118 190 1255 214 254 44
291 46 332 20z"/>
<path d="M1447 3739 c-118 -28 -223 -126 -258 -241 l-22 -71 86 -1507 c78
-1376 87 -1512 107 -1570 57 -168 207 -303 378 -339 36 -8 326 -11 925 -11
742 0 882 3 936 15 211 50 366 233 386 458 17 183 166 2892 162 2949 -8 127
-84 234 -205 291 l-67 32 -1195 2 c-675 0 -1211 -3 -1233 -8z m2395 -199 c41
-12 94 -66 104 -107 6 -24 -149 -2863 -162 -2963 -13 -99 -77 -190 -168 -238
l-51 -27 -900 0 -900 0 -57 28 c-68 34 -130 100 -153 165 -14 38 -33 332 -101
1522 -47 811 -82 1490 -79 1508 8 42 59 99 99 111 45 13 2321 14 2368 1z"/>
<path d="M1751 3355 c-95 -27 -170 -100 -197 -191 -15 -54 -14 -102 50 -1263
36 -663 69 -1224 72 -1246 14 -88 69 -163 154 -207 58 -30 196 -33 247 -5 80
43 143 126 158 208 5 30 -115 2321 -130 2457 -18 174 -188 292 -354 247z m126
-211 c13 -8 24 -28 27 -46 3 -18 35 -568 71 -1221 58 -1063 64 -1191 50 -1216
-33 -65 -133 -51 -150 21 -3 13 -34 562 -71 1221 -61 1116 -64 1200 -49 1223
29 44 71 50 122 18z"/>
<path d="M2573 3352 c-59 -21 -112 -59 -143 -101 -39 -55 -50 -107 -50 -232 0
-108 2 -120 23 -144 14 -17 36 -28 63 -32 36 -5 46 -1 75 25 34 30 34 31 37
129 4 128 7 140 43 159 36 18 70 13 99 -16 20 -20 20 -39 20 -1248 l0 -1229
-23 -21 c-32 -30 -87 -29 -115 1 l-22 23 -2 758 -3 758 -34 30 c-29 26 -39 30
-75 25 -27 -4 -49 -15 -63 -32 l-23 -26 0 -772 0 -772 24 -50 c63 -136 214
-198 359 -149 55 19 124 82 152 139 20 39 20 68 23 1308 2 1227 2 1270 -17
1312 -59 133 -216 204 -348 157z"/>
<path d="M3441 3359 c-89 -17 -165 -80 -204 -169 -18 -41 -26 -155 -89 -1275
-54 -978 -66 -1240 -57 -1277 50 -219 316 -293 476 -133 39 40 55 65 67 106
17 62 151 2416 143 2505 -16 160 -175 275 -336 243z m117 -225 c12 -14 22 -38
22 -55 0 -17 -29 -559 -65 -1204 -36 -646 -65 -1182 -65 -1190 0 -44 -74 -78
-125 -59 -47 19 -48 -20 21 1250 35 654 69 1206 75 1227 8 29 18 42 42 52 39
17 65 11 95 -21z"/>
<path d="M2434 2630 c-55 -22 -72 -108 -31 -155 14 -17 36 -28 63 -32 36 -5
46 -1 75 25 28 25 34 37 34 72 0 72 -72 118 -141 90z"/>
</g>
</svg>
